<?xml version="1.0" encoding="UTF-8"?><svg id="Layer_1" xmlns="http://www.w3.org/2000/svg" xmlns:xlink="http://www.w3.org/1999/xlink" viewBox="0 0 512 512"><defs><style>.cls-1{fill:#fff;}.cls-2{fill:url(#radial-gradient);}</style><radialGradient id="radial-gradient" cx="256" cy="256" fx="256" fy="256" r="256" gradientUnits="userSpaceOnUse"><stop offset="0" stop-color="#16a085"/><stop offset=".28" stop-color="#19a582"/><stop offset=".65" stop-color="#22b67a"/><stop offset="1" stop-color="#2ecc71"/></radialGradient></defs><rect class="cls-2" x="0" y="0" width="512" height="512" rx="256" ry="256"/><g><circle class="cls-1" cx="255.59" cy="365.42" r="43.74"/><path class="cls-1" d="m255.59,248.79c-37.59,0-73.09,18.28-94.96,48.91-6.24,8.74-4.22,20.88,4.52,27.12,3.42,2.45,7.37,3.62,11.28,3.62,6.07,0,12.04-2.83,15.83-8.14,14.59-20.43,38.27-32.63,63.33-32.63s48.73,12.2,63.32,32.63c6.24,8.73,18.38,10.76,27.12,4.52,8.74-6.24,10.76-18.38,4.52-27.12-21.87-30.63-57.37-48.91-94.96-48.91Z"/><path class="cls-1" d="m255.59,175.9c-53.69,0-105.08,22.92-141,62.9-7.18,7.99-6.52,20.28,1.47,27.45,3.71,3.34,8.36,4.98,12.99,4.98,5.32,0,10.63-2.17,14.46-6.45,28.56-31.78,69.41-50,112.08-50s83.53,18.23,112.09,50c7.18,7.99,19.47,8.64,27.45,1.47,7.99-7.18,8.64-19.47,1.47-27.45-35.92-39.97-87.31-62.9-141.01-62.9Z"/><path class="cls-1" d="m442.86,181.61c-49.76-50.69-116.27-78.61-187.27-78.61s-137.51,27.92-187.27,78.61c-7.52,7.66-7.41,19.97.25,27.49,3.78,3.71,8.7,5.57,13.62,5.57,5.03,0,10.07-1.94,13.87-5.82,42.39-43.19,99.05-66.97,159.53-66.97s117.13,23.78,159.53,66.97c7.52,7.66,19.83,7.77,27.49.26,7.66-7.52,7.77-19.83.26-27.49Z"/></g></svg>